<svg width="73" height="76" viewBox="0 0 73 76" fill="none" xmlns="http://www.w3.org/2000/svg">
<path d="M0 11.7621H17.0666V18.0953H0V11.7621ZM0 0H17.0666V6.33327H0V0ZM30.6201 23.4334H0V29.7667H29.4726C32.6994 29.7667 40.2287 29.857 43.0255 35.5571V32.0287C41.663 26.4189 37.6475 23.4334 30.6198 23.4334H30.6201ZM30.6914 35.1951H0V41.5284H29.4726C36.6434 41.5284 41.1612 41.8903 43.0255 43.1571V40.3523C41.5912 35.919 35.5678 35.1951 30.6917 35.1951H30.6914ZM30.6201 65.0521H0V58.7189H29.4726C32.6994 58.7189 40.2287 58.6286 43.0255 52.9285V56.4569C41.663 62.0667 37.6475 65.0521 30.6198 65.0521H30.6201ZM30.6914 53.2904H0V46.9572H29.4726C36.6434 46.9572 41.1612 46.5952 43.0255 45.3284V48.1333C41.5912 52.5666 35.5678 53.2904 30.6917 53.2904H30.6914ZM50.4832 76H73V72.1093H51.1285C49.1923 72.1093 44.6033 72.019 42.9539 68.6712V70.8429C43.7427 74.1903 46.1808 76 50.4832 76V76ZM50.4116 68.8522H72.9284V64.9618H51.1285C46.7542 64.9618 44.0293 64.7809 42.9537 63.9667V65.6857C43.814 68.3999 47.4711 68.8522 50.4113 68.8522H50.4116Z" fill="#30B1F5"/>
</svg>
