<svg width="70" height="72" viewBox="0 0 70 72" fill="none" xmlns="http://www.w3.org/2000/svg">
<path d="M43.75 40.2C42.3285 39.0191 40.5277 38.4303 38.7042 38.55H26.25V51.66H38.9083C40.6755 51.7134 42.3996 51.0937 43.75 49.92C44.3901 49.2859 44.8925 48.5198 45.2243 47.6718C45.556 46.8239 45.7096 45.9133 45.675 45C45.7061 44.1049 45.5503 43.2134 45.2183 42.3854C44.8862 41.5574 44.3856 40.8122 43.75 40.2V40.2ZM42 31.74C42.5881 31.2011 43.0507 30.5329 43.3536 29.7851C43.6566 29.0373 43.792 28.229 43.75 27.42C43.8358 26.6033 43.7414 25.7772 43.4738 25.0033C43.2061 24.2293 42.7721 23.5275 42.2042 22.95C40.9562 22.0375 39.4461 21.5831 37.9167 21.66H26.25V33.24H37.9167C39.4457 33.2708 40.9352 32.7388 42.1167 31.74H42ZM58.3333 0H11.6667C8.57247 0 5.60501 1.26428 3.41709 3.51472C1.22916 5.76515 0 8.8174 0 12V60C0 63.1826 1.22916 66.2348 3.41709 68.4853C5.60501 70.7357 8.57247 72 11.6667 72H58.3333C61.4275 72 64.395 70.7357 66.5829 68.4853C68.7708 66.2348 70 63.1826 70 60V12C70 8.8174 68.7708 5.76515 66.5829 3.51472C64.395 1.26428 61.4275 0 58.3333 0V0ZM51.9458 50.55C51.3823 52.0096 50.4572 53.292 49.2625 54.27C47.8741 55.4067 46.277 56.2434 44.5667 56.73C42.3615 57.3982 40.0692 57.7119 37.7708 57.66H19.0167V15.66H38.85C41.9639 15.5004 45.0413 16.4078 47.6 18.24C48.7318 19.1684 49.6262 20.3668 50.2056 21.7313C50.7851 23.0958 51.032 24.5851 50.925 26.07C51.033 27.979 50.5644 29.8757 49.5833 31.5C48.4987 33.0689 47.0011 34.2866 45.2667 35.01C46.4255 35.1945 47.5375 35.6128 48.5386 36.2409C49.5397 36.8691 50.4102 37.6946 51.1 38.67C52.4537 40.7848 53.1365 43.2794 53.0542 45.81C53.0107 47.4523 52.6331 49.067 51.9458 50.55Z" fill="#30B1F5"/>
</svg>
