<svg width="65" height="68" viewBox="0 0 65 68" fill="none" xmlns="http://www.w3.org/2000/svg">
<path d="M63.435 30.8759L35.2044 1.26818C34.4182 0.455542 33.3586 0 32.2548 0C31.1509 0 30.0913 0.455542 29.3051 1.26818L23.4596 7.42703L30.8944 15.2245C31.7708 14.9088 32.7143 14.8586 33.6167 15.0797C34.5191 15.3007 35.3438 15.784 35.9962 16.4742C36.6486 17.1643 37.1024 18.0334 37.3054 18.9816C37.5084 19.9299 37.4524 20.9189 37.1439 21.8354L44.3093 29.3503C45.1486 29.0294 46.0549 28.9524 46.9324 29.1273C47.81 29.3022 48.6262 29.7226 49.2946 30.344C49.9631 30.9655 50.459 31.7648 50.73 32.6575C51.0009 33.5502 51.0368 34.5031 50.8338 35.4154C50.6308 36.3277 50.1965 37.1656 49.5769 37.8403C48.9572 38.5151 48.1752 39.0017 47.3135 39.2486C46.4519 39.4956 45.5426 39.4937 44.6818 39.2433C43.8211 38.9928 43.0409 38.503 42.4237 37.8258C41.7359 37.0984 41.267 36.175 41.0754 35.1704C40.8839 34.1658 40.978 33.1244 41.3462 32.1755L34.6657 25.4233V43.8434C35.1412 44.1036 35.577 44.4369 35.9587 44.8322C36.7194 45.6234 37.2167 46.6506 37.3769 47.7616C37.5371 48.8726 37.3517 50.0081 36.8481 50.9998C36.3446 51.9916 35.5497 52.7867 34.5813 53.2674C33.613 53.748 32.5227 53.8886 31.4722 53.6683C30.4216 53.4479 29.4668 52.8784 28.7492 52.0441C28.0316 51.2098 27.5894 50.1551 27.4883 49.0365C27.3872 47.918 27.6324 46.795 28.1878 45.8341C28.7431 44.8732 29.5788 44.1256 30.5712 43.7021V24.943C29.9622 24.6893 29.408 24.31 28.9412 23.8278C28.4744 23.3455 28.1045 22.77 27.8534 22.1353C27.6023 21.5006 27.475 20.8195 27.4791 20.1323C27.4833 19.4451 27.6187 18.7658 27.8774 18.1344L20.5773 10.45L1.20919 30.7346C0.434354 31.5592 0 32.6705 0 33.8282C0 34.9859 0.434354 36.0971 1.20919 36.9217L29.4398 66.5294C30.226 67.3421 31.2856 67.7976 32.3895 67.7976C33.4933 67.7976 34.5529 67.3421 35.3391 66.5294L63.435 37.063C64.2099 36.2384 64.6442 35.1272 64.6442 33.9694C64.6442 32.8117 64.2099 31.7005 63.435 30.8759" fill="#30B1F5"/>
</svg>
