<svg width="82" height="94" viewBox="0 0 82 94" fill="none" xmlns="http://www.w3.org/2000/svg">
<path d="M41.0416 90.0854L4.58331 68.5417V25.5417L41.0416 3.99792L77.5 25.5417V68.5417L41.0416 90.0854ZM8.74998 66.1667L41.0416 85.2479L73.3333 66.1667V27.9167L41.0416 8.83542L8.74998 27.9167V66.1667Z" fill="#30B1F5"/>
<path d="M41.0417 14.75C45.0687 14.75 48.3333 11.4854 48.3333 7.45829C48.3333 3.43122 45.0687 0.166626 41.0417 0.166626C37.0146 0.166626 33.75 3.43122 33.75 7.45829C33.75 11.4854 37.0146 14.75 41.0417 14.75Z" fill="#30B1F5"/>
<path d="M41.0417 93.9167C45.0687 93.9167 48.3333 90.6521 48.3333 86.625C48.3333 82.598 45.0687 79.3334 41.0417 79.3334C37.0146 79.3334 33.75 82.598 33.75 86.625C33.75 90.6521 37.0146 93.9167 41.0417 93.9167Z" fill="#30B1F5"/>
<path d="M7.70835 73.0833C11.7354 73.0833 15 69.8187 15 65.7917C15 61.7646 11.7354 58.5 7.70835 58.5C3.68128 58.5 0.416687 61.7646 0.416687 65.7917C0.416687 69.8187 3.68128 73.0833 7.70835 73.0833Z" fill="#30B1F5"/>
<path d="M74.375 73.0833C78.4021 73.0833 81.6666 69.8187 81.6666 65.7917C81.6666 61.7646 78.4021 58.5 74.375 58.5C70.3479 58.5 67.0833 61.7646 67.0833 65.7917C67.0833 69.8187 70.3479 73.0833 74.375 73.0833Z" fill="#30B1F5"/>
<path d="M7.70835 35.5833C11.7354 35.5833 15 32.3187 15 28.2917C15 24.2646 11.7354 21 7.70835 21C3.68128 21 0.416687 24.2646 0.416687 28.2917C0.416687 32.3187 3.68128 35.5833 7.70835 35.5833Z" fill="#30B1F5"/>
<path d="M74.375 35.5833C78.4021 35.5833 81.6666 32.3187 81.6666 28.2917C81.6666 24.2646 78.4021 21 74.375 21C70.3479 21 67.0833 24.2646 67.0833 28.2917C67.0833 32.3187 70.3479 35.5833 74.375 35.5833Z" fill="#30B1F5"/>
<path d="M79 68.9167H3.08331L41.0416 2.20422L79 68.9167ZM10.25 64.7501H71.8333L41.0416 10.6292L10.25 64.7501Z" fill="#30B1F5"/>
</svg>
