<svg width="60" height="72" viewBox="0 0 60 72" fill="none" xmlns="http://www.w3.org/2000/svg">
<path d="M9.32379 6.47519H12.8174V9.73482H16.6386V0H12.8174V3.21703H9.32379V0H5.50427V9.73482H9.32379V6.47519Z" fill="#30B1F5"/>
<path d="M21.66 9.73482H25.4795V3.23025H28.8404V0H18.2992V3.23025H21.66V9.73482Z" fill="#30B1F5"/>
<path d="M34.2515 4.91221L36.8829 8.37162H36.9467L39.573 4.91221V9.73482H43.3787V0H39.3953L36.9467 3.42562L34.4981 0H30.5165V9.73482H34.2515V4.91221Z" fill="#30B1F5"/>
<path d="M54.4699 6.51926H49.0984V0H45.2789V9.73482H54.4699V6.51926Z" fill="#30B1F5"/>
<path d="M0 14.0064L5.46285 66.2016L29.9853 71.9996L54.5268 66.2045L60 14.0064H0V14.0064ZM48.1483 31.0758H29.9991H19.3907L20.077 37.6317H29.9991H47.4654L45.4048 57.2909L29.9991 60.9266L29.9888 60.9295L14.5935 57.2909L13.5192 47.0081H21.0616L21.6203 52.3419L29.9905 54.2692L30.0009 54.2663L38.3797 52.339L39.2522 44.0364H30.0009H13.2071L11.1775 24.677H29.9991H48.8191L48.1483 31.0758Z" fill="#30B1F5"/>
</svg>
