<svg width="59" height="59" viewBox="0 0 59 59" fill="none" xmlns="http://www.w3.org/2000/svg">
<rect width="59" height="58.4839" fill="#30B1F5"/>
<path d="M28.1807 26.925V44.6111C28.1807 47.0655 27.4709 48.9785 26.0512 50.35C24.6315 51.6976 22.7305 52.3713 20.3483 52.3713C17.9421 52.3713 15.993 51.6735 14.5011 50.2779C13.0333 48.8822 12.2994 46.9331 12.2994 44.4306H17.3525C17.3766 45.5135 17.6293 46.3556 18.1105 46.9572C18.6158 47.5588 19.3377 47.8596 20.2762 47.8596C21.1905 47.8596 21.8884 47.5708 22.3696 46.9933C22.8509 46.4158 23.0915 45.6217 23.0915 44.6111V26.925H28.1807ZM42.774 52.3713C41.0174 52.3713 39.4293 52.0705 38.0096 51.469C36.614 50.8674 35.5071 50.0011 34.6889 48.8702C33.8708 47.7392 33.4497 46.4038 33.4256 44.8638H38.8397C38.9119 45.8985 39.2729 46.7166 39.9226 47.3182C40.5963 47.9197 41.5107 48.2205 42.6657 48.2205C43.8448 48.2205 44.7712 47.9438 45.4449 47.3903C46.1187 46.8128 46.4556 46.0669 46.4556 45.1525C46.4556 44.4066 46.227 43.793 45.7698 43.3117C45.3126 42.8305 44.7351 42.4575 44.0373 42.1928C43.3635 41.9041 42.4251 41.5912 41.222 41.2544C39.5857 40.7731 38.2502 40.3039 37.2155 39.8467C36.2049 39.3654 35.3266 38.6556 34.5807 37.7171C33.8588 36.7546 33.4978 35.4793 33.4978 33.8912C33.4978 32.3993 33.8708 31.0999 34.6168 29.993C35.3627 28.8862 36.4094 28.044 37.7569 27.4665C39.1044 26.8649 40.6444 26.5641 42.377 26.5641C44.9757 26.5641 47.0812 27.2018 48.6934 28.4771C50.3297 29.7283 51.232 31.4849 51.4005 33.7468H45.842C45.7939 32.8806 45.4209 32.1707 44.7231 31.6173C44.0493 31.0398 43.147 30.751 42.016 30.751C41.0295 30.751 40.2354 31.0037 39.6338 31.509C39.0563 32.0143 38.7676 32.7482 38.7676 33.7107C38.7676 34.3845 38.9841 34.9499 39.4173 35.4071C39.8744 35.8403 40.4279 36.2012 41.0776 36.49C41.7513 36.7546 42.6898 37.0675 43.8929 37.4284C45.5292 37.9096 46.8646 38.3909 47.8993 38.8722C48.934 39.3534 49.8244 40.0753 50.5703 41.0378C51.3162 42.0003 51.6892 43.2636 51.6892 44.8277C51.6892 46.1752 51.3403 47.4264 50.6425 48.5814C49.9447 49.7364 48.922 50.6629 47.5745 51.3607C46.227 52.0344 44.6268 52.3713 42.774 52.3713Z" fill="#0E0822"/>
</svg>
