<svg width="213" height="33" viewBox="0 0 213 33" fill="none" xmlns="http://www.w3.org/2000/svg">
<path d="M4.09634 4.79121C5.46479 3.18984 7.28453 2.38915 9.55557 2.38915C11.3608 2.38915 12.7438 2.73854 13.7046 3.43732C14.6654 4.16522 15.4661 5.4172 16.1066 7.19327L17.9409 12.3905L24.5357 3.21895H30.4317L19.7316 17.4129L22.483 25.1869C22.8906 26.3515 23.4438 27.3706 24.1426 28.2441C24.8705 29.0884 25.5547 29.5834 26.1953 29.729C25.613 30.8354 24.8123 31.6361 23.7932 32.131C22.8033 32.626 21.5659 32.8735 20.081 32.8735C18.6252 32.8735 17.3732 32.3931 16.325 31.4322C15.306 30.4714 14.4034 28.9137 13.6172 26.7591L12.3507 23.2652L5.75595 32H0.384069L10.429 18.0681L7.28453 9.28961C6.81868 8.00851 6.35282 7.04769 5.88697 6.40714C5.42112 5.73747 4.82424 5.19883 4.09634 4.79121ZM38.1094 32.8735C31.7039 32.8735 28.5011 29.86 28.5011 23.833C28.5011 19.553 29.6803 16.0299 32.0387 13.2639C34.5427 10.3232 37.9638 8.85287 42.3021 8.85287C45.4466 8.85287 47.8195 9.58077 49.4209 11.0366C51.0223 12.4924 51.823 14.7488 51.823 17.806C51.823 22.4645 50.571 26.1477 48.067 28.8555C45.6213 31.5341 42.3021 32.8735 38.1094 32.8735ZM39.2449 13.8754C38.8955 14.6615 38.5752 15.6514 38.2841 16.8452C38.022 18.0098 37.7163 19.5238 37.3669 21.3873C37.0175 23.2507 36.8428 25.3325 36.8428 27.6326C36.8428 28.3896 36.9593 29.0156 37.1922 29.5106C37.4543 30.0056 37.9201 30.253 38.5898 30.253C39.2595 30.253 39.7981 30.0929 40.2057 29.7726C40.6425 29.4524 41.021 28.9137 41.3412 28.1567C41.9236 26.8174 42.4476 24.9103 42.9135 22.4354C43.3794 19.9315 43.6268 18.1408 43.656 17.0636C43.7142 15.9863 43.7433 15.0546 43.7433 14.2684C43.7433 13.4532 43.6268 12.7835 43.3939 12.2594C43.161 11.7353 42.7097 11.4733 42.04 11.4733C41.3995 11.4733 40.8608 11.6771 40.4241 12.0847C39.9874 12.4924 39.5943 13.0892 39.2449 13.8754ZM72.8659 32.8735C69.3429 32.8735 67.5814 31.505 67.5814 28.7681C67.6105 28.0111 67.7415 26.9921 67.9744 25.711L68.7606 21.693C69.5467 17.9079 69.9398 15.5932 69.9398 14.7488C69.9398 13.0601 69.4448 12.2158 68.4548 12.2158C66.7952 12.2158 65.5287 14.3849 64.6552 18.7232L62.0785 32L53.3 32.8735L57.8421 9.68268L65.0046 8.85287L64.3058 13.1329C65.6743 10.2796 68.4548 8.85287 72.6475 8.85287C74.6856 8.85287 76.1269 9.28961 76.9712 10.1631C77.8447 11.0074 78.2814 12.3905 78.2814 14.3121C78.2814 16.1173 77.8156 19.1308 76.8839 23.3526C76.4471 25.2451 76.2288 26.5553 76.2288 27.2832C76.2288 27.982 76.418 28.5352 76.7965 28.9428C77.2042 29.3505 77.6991 29.5834 78.2814 29.6416C77.9903 30.6316 77.3352 31.4177 76.3161 32C75.3262 32.5823 74.1761 32.8735 72.8659 32.8735ZM95.5306 8.85287C96.5787 8.85287 97.5104 8.96934 98.3257 9.20227C98.3548 9.0858 98.3985 8.86743 98.4567 8.54716L98.6751 7.19327C98.7915 6.61095 98.9371 5.83938 99.1118 4.87856L99.8106 1.42832L108.502 0.554848L103.654 25.8857C103.625 26.0604 103.61 26.2933 103.61 26.5844V27.2832C103.61 27.9238 103.77 28.4915 104.091 28.9865C104.411 29.4524 104.833 29.6853 105.357 29.6853C104.775 31.0537 103.596 32.0291 101.82 32.6114C101.208 32.7861 100.466 32.8735 99.5922 32.8735C98.7479 32.8735 97.9326 32.6405 97.1465 32.1747C96.3604 31.738 95.8508 31.1411 95.6179 30.3841C95.1521 31.1411 94.4533 31.738 93.5216 32.1747C92.5899 32.6405 91.4398 32.8735 90.0713 32.8735C88.732 32.8735 87.4946 32.6988 86.3591 32.3494C85.2527 32 84.3501 31.4468 83.6513 30.6898C82.3702 29.2049 81.7296 26.7737 81.7296 23.3963C81.7296 19.0289 83.0107 15.5204 85.5729 12.8709C88.1351 10.1922 91.4543 8.85287 95.5306 8.85287ZM95.2248 11.4733C94.1476 11.4733 93.3178 12.0556 92.7354 13.2203C92.1531 14.3849 91.5562 16.4084 90.9448 19.2909C90.3625 22.1734 90.0713 24.9103 90.0713 27.5016C90.0713 29.2777 90.5954 30.1657 91.6436 30.1657C92.5753 30.1657 93.3614 29.6998 94.002 28.7681C94.6716 27.8364 95.1375 26.599 95.3995 25.0559L97.7579 12.2594C97.1465 11.7353 96.3021 11.4733 95.2248 11.4733ZM110.947 30.6898C110.278 29.9328 109.783 28.9574 109.463 27.7636C109.171 26.5699 109.026 24.9976 109.026 23.0469C109.026 21.0961 109.361 19.2327 110.03 17.4566C110.7 15.6805 111.646 14.152 112.869 12.8709C115.373 10.1922 118.692 8.85287 122.827 8.85287C124.312 8.85287 125.593 9.10036 126.67 9.59533L134.138 8.85287L130.906 25.8857C130.819 26.2351 130.775 26.73 130.775 27.3706C130.775 28.0111 130.965 28.5352 131.343 28.9428C131.751 29.3505 132.246 29.5834 132.828 29.6416C132.537 30.6316 131.853 31.4177 130.775 32C129.727 32.5823 128.606 32.8735 127.412 32.8735C126.219 32.8735 125.214 32.6405 124.399 32.1747C123.613 31.738 123.103 31.1411 122.87 30.3841C122.405 31.112 121.677 31.7088 120.687 32.1747C119.697 32.6405 118.532 32.8735 117.193 32.8735C115.883 32.8735 114.689 32.6988 113.612 32.3494C112.534 32 111.646 31.4468 110.947 30.6898ZM120.163 12.9582C119.842 13.4823 119.537 14.1956 119.245 15.0982C118.954 15.9717 118.561 17.6022 118.066 19.9897C117.6 22.3481 117.367 24.3716 117.367 26.0604C117.367 27.7491 117.498 28.8409 117.761 29.3359C118.023 29.8309 118.387 30.0784 118.852 30.0784C119.784 30.0784 120.585 29.6416 121.254 28.7681C121.953 27.8655 122.434 26.6281 122.696 25.0559L125.01 12.2594C124.399 11.7353 123.729 11.4733 123.001 11.4733C122.303 11.4733 121.735 11.5898 121.298 11.8227C120.89 12.0556 120.512 12.4341 120.163 12.9582ZM167.939 32.8735C164.416 32.8735 162.654 31.505 162.654 28.7681C162.654 27.5744 162.902 25.8274 163.397 23.5273C163.921 21.198 164.27 19.5675 164.445 18.6358C164.852 16.5104 165.056 15.1128 165.056 14.4431C165.056 12.9582 164.503 12.2158 163.397 12.2158C162.669 12.2158 161.955 12.7253 161.257 13.7443C160.558 14.7343 160.048 16.2338 159.728 18.2427L157.02 32L148.504 32.8735L150.862 20.9942C151.124 19.684 151.372 18.2864 151.605 16.8015C151.838 15.3166 151.954 14.4577 151.954 14.2248C151.954 12.8854 151.459 12.2158 150.469 12.2158C149.799 12.2158 149.101 12.7107 148.373 13.7007C147.645 14.6906 147.077 16.2046 146.67 18.2427L144.005 32L135.402 32.8735L139.987 9.72635L147.106 8.85287L146.364 13.2639C147.121 11.6917 148.198 10.5707 149.596 9.90104C150.993 9.20226 152.784 8.85287 154.968 8.85287C156.22 8.85287 157.253 9.15859 158.068 9.77003C158.884 10.3815 159.422 11.1821 159.684 12.1721C160.179 11.153 161.053 10.3523 162.305 9.77003C163.586 9.15859 164.998 8.85287 166.541 8.85287C168.113 8.85287 169.278 9.02757 170.035 9.37696C170.821 9.69723 171.447 10.134 171.913 10.6872C172.699 11.7062 173.092 13.1475 173.092 15.0109C173.092 16.8452 172.699 19.6694 171.913 23.4836C171.505 25.347 171.302 26.6281 171.302 27.3269C171.302 27.9966 171.491 28.5352 171.869 28.9428C172.277 29.3505 172.772 29.5834 173.354 29.6416C173.063 30.6316 172.408 31.4177 171.389 32C170.399 32.5823 169.249 32.8735 167.939 32.8735ZM187.194 29.5979C186.292 31.7816 184.399 32.8735 181.517 32.8735C180.032 32.8735 178.824 32.3639 177.892 31.3449C177.106 30.4423 176.713 29.5397 176.713 28.6371C176.713 26.2787 177.251 22.7994 178.329 18.1991L179.945 9.72635L188.81 8.85287L186.146 22.6538C185.651 24.8084 185.404 26.2642 185.404 27.0212C185.404 28.6808 186.001 29.5397 187.194 29.5979ZM180.731 3.65569C180.731 2.52017 181.197 1.64669 182.128 1.03526C183.089 0.423826 184.254 0.11811 185.622 0.11811C186.991 0.11811 188.082 0.423826 188.898 1.03526C189.742 1.64669 190.164 2.52017 190.164 3.65569C190.164 4.79121 189.698 5.65013 188.767 6.23244C187.864 6.81476 186.729 7.10592 185.36 7.10592C183.992 7.10592 182.871 6.81476 181.997 6.23244C181.153 5.65013 180.731 4.79121 180.731 3.65569ZM204.585 19.7277C205.633 17.8642 206.157 15.9863 206.157 14.0937C206.157 12.8418 205.706 12.2158 204.803 12.2158C204.105 12.2158 203.391 12.8126 202.663 14.0064C201.906 15.2001 201.411 16.5686 201.179 18.1117L198.908 32L189.867 32.8735L194.322 9.72635L201.528 8.85287L200.742 13.2639C202.168 10.3232 204.483 8.85287 207.686 8.85287C209.375 8.85287 210.67 9.28961 211.573 10.1631C212.505 11.0366 212.97 12.3759 212.97 14.1811C212.97 15.9571 212.374 17.4129 211.18 18.5485C210.015 19.684 208.428 20.2517 206.419 20.2517C205.546 20.2517 204.934 20.077 204.585 19.7277Z" fill="url(#paint0_linear_2_100)"/>
<defs>
<linearGradient id="paint0_linear_2_100" x1="2" y1="-3.22318" x2="24.7438" y2="79.8337" gradientUnits="userSpaceOnUse">
<stop stop-color="#6DC4EB"/>
<stop offset="1" stop-color="#F9B8F9"/>
</linearGradient>
</defs>
</svg>
