<svg width="70" height="70" viewBox="0 0 70 70" fill="none" xmlns="http://www.w3.org/2000/svg">
<path d="M34.9416 40.81C38.1762 40.81 40.7983 38.1879 40.7983 34.9533C40.7983 31.7188 38.1762 29.0966 34.9416 29.0966C31.7071 29.0966 29.085 31.7188 29.085 34.9533C29.085 38.1879 31.7071 40.81 34.9416 40.81Z" fill="#30B1F5"/>
<path d="M34.9417 48.37C26.7167 48.37 19.53 47.4017 14.1517 45.5583C10.6633 44.3683 7.69999 42.7817 5.58833 40.9733C3.34833 39.06 2.15833 36.9717 2.15833 34.9533C2.15833 31.08 6.40499 27.2883 13.5333 24.815C19.3667 22.785 26.9733 21.6533 34.93 21.6533C42.7467 21.6533 50.2483 22.75 56.0467 24.7567C59.4417 25.9233 62.3 27.44 64.33 29.12C66.535 30.9633 67.7017 32.9817 67.7017 34.9533C67.7017 38.9783 62.9533 43.05 55.3 45.5817C49.8867 47.3784 42.6533 48.37 34.9417 48.37ZM34.9417 24.4533C27.3933 24.4533 19.9267 25.55 14.4667 27.4517C7.90999 29.7383 4.96999 32.865 4.96999 34.9533C4.96999 37.1233 8.13166 40.5417 15.0617 42.91C20.1483 44.6483 27.0317 45.57 34.9417 45.57C42.3617 45.57 49.28 44.6367 54.425 42.9217C61.6233 40.53 64.9133 37.1117 64.9133 34.9533C64.9133 33.845 64.0733 32.5383 62.545 31.2667C60.7833 29.7967 58.2167 28.455 55.1483 27.3933C49.63 25.5033 42.455 24.4533 34.9417 24.4533Z" fill="#30B1F5"/>
<path d="M21.6533 64.1433C20.4633 64.1433 19.4133 63.8867 18.5266 63.3733C15.1783 61.4367 14.0116 55.86 15.4233 48.4517C16.5783 42.3733 19.4016 35.2333 23.38 28.3383C27.2883 21.5717 31.9783 15.6217 36.61 11.5967C39.3166 9.24001 42.0583 7.51334 44.5316 6.60334C47.2266 5.61167 49.56 5.61167 51.2633 6.59167C54.7516 8.59834 55.9066 14.7583 54.2733 22.645C53.1183 28.245 50.365 35 46.515 41.685C42.4083 48.8017 37.975 54.5417 33.6933 58.2867C30.9166 60.7133 28.0583 62.4867 25.445 63.4083C24.08 63.8983 22.7966 64.1433 21.6533 64.1433ZM24.5816 29.0383L25.795 29.7383C22.0266 36.2717 19.2383 43.2833 18.165 48.9767C16.87 55.8017 18.1183 59.9083 19.915 60.9467C20.3583 61.2034 20.9416 61.3433 21.6533 61.3433C23.975 61.3433 27.6266 59.8733 31.85 56.1867C35.8983 52.6517 40.1333 47.145 44.0883 40.2967C47.7983 33.8683 50.435 27.405 51.5316 22.0967C53.06 14.665 51.7416 10.115 49.8633 9.03001C48.9066 8.48167 47.355 8.55167 45.4883 9.24001C43.33 10.0333 40.8916 11.585 38.4416 13.72C34.0433 17.5467 29.5516 23.24 25.795 29.75L24.5816 29.0383Z" fill="#30B1F5"/>
<path d="M48.2299 64.1783C45.0566 64.1783 41.0316 62.265 36.8316 58.6483C32.1416 54.6117 27.3699 48.6033 23.3799 41.7083C19.4599 34.9417 16.6599 27.9067 15.4816 21.875C14.7933 18.3517 14.6649 15.12 15.1083 12.5183C15.5983 9.68334 16.7533 7.66501 18.4683 6.67334C21.9449 4.65501 27.8599 6.73167 33.8799 12.0867C38.1499 15.8783 42.6299 21.6417 46.4916 28.315C50.6099 35.4317 53.3749 42.14 54.4716 47.7167C55.1833 51.3333 55.3 54.6933 54.7983 57.4233C54.2616 60.3283 53.0483 62.3933 51.2983 63.4083C50.4233 63.9217 49.3849 64.1783 48.2299 64.1783ZM25.8066 40.3083C29.5866 46.8417 34.2766 52.7567 38.6633 56.525C43.9249 61.0517 48.1016 62.0317 49.9099 60.9817C51.7883 59.8967 53.1649 55.4517 51.7416 48.265C50.6916 42.9917 48.0433 36.575 44.0766 29.7267C40.3549 23.2983 36.0733 17.78 32.0249 14.1867C26.3549 9.14667 21.7583 8.01501 19.8799 9.10001C18.9233 9.64834 18.2116 11.0367 17.8733 12.9967C17.4883 15.26 17.6049 18.1533 18.2349 21.3383C19.3549 27.0667 22.0383 33.7983 25.8066 40.3083Z" fill="#30B1F5"/>
</svg>
