<svg width="69" height="69" viewBox="0 0 69 69" fill="none" xmlns="http://www.w3.org/2000/svg">
<path d="M47.82 47.4492C50.3184 47.2336 52.2561 45.0342 52.1296 42.4064C51.9974 39.7787 49.844 37.6684 47.2191 37.6684H47.0437C44.3326 37.7576 42.2195 40.0374 42.3057 42.7543C42.392 44.1314 42.9555 45.2527 43.726 46.0692C40.713 51.9284 36.1906 56.2352 29.3395 59.8548C24.7309 62.2641 19.8635 63.1725 15.1255 62.5257C11.1637 61.9679 8.06449 60.1969 6.16699 57.3564C3.32649 53.0468 3.06774 48.3979 5.43386 43.7462C7.16174 40.3853 9.74349 37.9301 11.4685 36.7226C11.0372 35.6042 10.5197 33.7096 10.261 32.2893C-2.49251 41.4232 -1.19589 53.9122 2.67961 59.8146C5.56611 64.1213 11.4685 66.8756 17.9286 66.8756C19.6507 66.8756 21.462 66.7491 23.2272 66.3178C34.4282 64.1644 42.9124 57.4456 47.7797 47.5383L47.82 47.4492V47.4492ZM63.1955 36.6794C56.5226 28.8393 46.6987 24.5326 35.4977 24.5326H34.0315C33.3041 22.9398 31.6251 21.9479 29.7276 21.9479H29.5982C26.8871 21.9479 24.774 24.2767 24.8631 26.9878C24.9494 29.5696 27.1459 31.7258 29.7736 31.7258H29.9864C31.927 31.6396 33.606 30.4321 34.2931 28.7099H35.8887C42.5271 28.7099 48.8119 30.6477 54.5417 34.4369C58.9319 37.3234 62.08 41.1127 63.8452 45.6379C65.392 49.3409 65.3086 52.9606 63.7159 55.9793C61.2606 60.7144 57.1235 63.2157 51.6552 63.2157C48.2081 63.2157 44.8501 62.1376 43.1251 61.3642C42.093 62.2209 40.368 63.6441 39.1174 64.5066C42.9066 66.2258 46.7419 67.2177 50.4449 67.2177C58.8456 67.2177 65.0872 62.4825 67.4591 57.9142C70.0409 52.7449 69.8281 44.0452 63.2357 36.5932L63.1955 36.6794V36.6794ZM18.6589 48.9959C18.7422 51.5806 20.9387 53.7339 23.5694 53.7339H23.7419C26.499 53.6477 28.6092 51.3678 28.4799 48.6509C28.4799 46.0663 26.2402 43.9158 23.6125 43.9158H23.4371C23.2646 43.9158 23.0087 43.9158 22.7902 43.9992C19.2166 37.9674 17.7072 31.5044 18.2707 24.5326C18.6129 19.2771 20.3379 14.7087 23.4371 10.9194C26.0217 7.68793 30.8891 6.0923 34.2069 6.00893C43.5104 5.83355 47.3887 17.4256 47.6877 22.0342L51.9945 23.3251C51.0026 9.1973 42.2195 1.78555 33.8187 1.78555C25.9355 1.78555 18.6589 7.51543 15.7264 15.9162C11.7215 27.1172 14.3492 37.8841 19.2597 46.5004C18.8314 47.0611 18.5726 48.0501 18.6589 48.9959V48.9959Z" fill="#30B1F5"/>
</svg>
