<svg width="79" height="59" viewBox="0 0 79 59" fill="none" xmlns="http://www.w3.org/2000/svg">
<path d="M67.1645 33.6252C64.4345 33.6373 62.0704 34.2955 60.0962 35.2706C59.3771 33.82 58.6336 32.5527 58.5116 31.6022C58.3658 30.493 58.207 29.8351 58.3778 28.519C58.5486 27.2025 59.3161 25.3379 59.304 25.2041C59.292 25.0701 59.1334 24.3997 57.5613 24.3874C55.9893 24.3754 54.6367 24.6921 54.4781 25.1064C54.3194 25.5207 54.0151 26.4593 53.8323 27.4342C53.5519 28.8601 50.6878 33.9543 49.0669 36.611C48.5308 35.5754 48.08 34.661 47.9823 33.9299C47.8361 32.8206 47.6777 32.1628 47.8483 30.8466C48.0189 29.5302 48.7866 27.6655 48.7743 27.5317C48.7621 27.3977 48.6037 26.7273 47.0318 26.7151C45.4596 26.703 44.1072 27.0197 43.9484 27.4342C43.79 27.8484 43.6194 28.8234 43.3026 29.7622C42.9859 30.7001 39.1712 39.1821 38.1719 41.3882C37.6599 42.5091 37.2215 43.411 36.9045 44.0206C36.856 44.1179 36.8193 44.179 36.7949 44.2279C36.8314 44.167 36.856 44.1057 36.856 44.1305C36.5878 44.6542 36.4292 44.9468 36.4292 44.9468V44.9588C36.222 45.3488 35.9905 45.702 35.8809 45.702C35.8076 45.702 35.6494 44.6787 35.9175 43.2771C36.4901 40.3278 37.8429 35.746 37.8307 35.5872C37.8185 35.5019 38.0864 34.7099 36.9409 34.2831C35.8321 33.881 35.4298 34.5515 35.3324 34.5515C35.2351 34.5515 35.1618 34.7953 35.1618 34.7953C35.1618 34.7953 36.3928 29.628 32.7975 29.628C30.5552 29.628 27.4355 32.09 25.9001 34.3201C24.9372 34.8442 22.8531 35.9775 20.6597 37.1839C19.8188 37.6471 18.9534 38.1221 18.137 38.5733C18.0761 38.512 18.0272 38.4512 17.9664 38.3903C13.6035 33.7352 5.54797 30.4447 5.88938 24.1926C6.01116 21.9136 6.80338 15.9302 21.3788 8.66671C33.3219 2.71956 42.8762 4.35267 44.5217 7.98423C46.8856 13.1638 39.4151 22.8035 27.0091 24.1926C22.2806 24.7166 19.7947 22.8887 19.1731 22.2063C18.5271 21.4874 18.4295 21.4506 18.1858 21.5847C17.7835 21.804 18.0396 22.4379 18.1858 22.8156C18.5515 23.7782 20.0747 25.4844 22.6706 26.3375C24.9493 27.0809 30.4945 27.4954 37.197 24.8995C44.7285 21.9989 50.5905 13.919 48.872 7.15554C47.1173 0.282354 35.7227 -1.97236 24.9374 1.85424C18.515 4.13321 11.5686 7.71625 6.57187 12.3836C0.636928 17.941 -0.313531 22.7789 0.0762181 24.8021C1.46561 31.9799 11.3611 36.6598 15.3219 40.1207C15.1268 40.2305 14.944 40.328 14.7736 40.4255C12.7872 41.4124 5.24353 45.361 3.35449 49.5293C1.22206 54.2577 3.70777 57.6454 5.34089 58.1087C10.4349 59.5222 15.6509 56.9753 18.454 52.795C21.2567 48.6152 20.9156 43.1555 19.6239 40.6692C19.6115 40.6328 19.5873 40.6087 19.5752 40.5717C20.0869 40.2673 20.6108 39.9625 21.1351 39.6579C22.1464 39.0607 23.1337 38.512 23.9988 38.0371C23.5112 39.3534 23.1579 40.937 22.9751 43.2285C22.7558 45.9095 23.8648 49.3828 25.3029 50.7478C25.9364 51.3449 26.7042 51.3573 27.1796 51.3573C28.8614 51.3573 29.6168 49.9677 30.4577 48.3104C31.4936 46.287 32.4076 43.9349 32.4076 43.9349C32.4076 43.9349 31.2621 50.297 34.394 50.297C35.5395 50.297 36.6853 48.8222 37.1969 48.0667V48.0787C37.1969 48.0787 37.2215 48.0302 37.2823 47.9328C37.4041 47.7498 37.465 47.6401 37.465 47.6401V47.6033C37.928 46.8113 38.9397 44.9953 40.4628 41.9976C42.4373 38.122 44.326 33.2837 44.326 33.2837C44.326 33.2837 44.4966 34.4661 45.0819 36.4281C45.423 37.5858 46.1419 38.8533 46.7147 40.0843C46.2518 40.7179 45.9713 41.0836 45.9713 41.0836C45.9713 41.0836 45.9713 41.0956 45.9832 41.1078C45.6177 41.5956 45.2035 42.1197 44.777 42.6315C43.2169 44.4838 41.3645 46.6045 41.121 47.2137C40.8282 47.9328 40.9015 48.4686 41.4622 48.8833C41.8764 49.2003 42.6077 49.2488 43.3754 49.1881C44.777 49.0902 45.7641 48.7493 46.2393 48.5295C46.9947 48.2619 47.8724 47.835 48.7011 47.238C50.2245 46.1171 51.1508 44.5084 51.0652 42.3878C51.0165 41.2179 50.6385 40.0478 50.1754 38.9513C50.3096 38.7561 50.456 38.5487 50.59 38.3419C53.0032 34.8194 54.8677 30.9567 54.8677 30.9567C54.8677 30.9567 55.0383 32.1385 55.6231 34.1006C55.9157 35.0879 56.4884 36.1725 57.0123 37.2326C54.7456 39.0729 53.3443 41.2059 52.8567 42.607C51.9548 45.2029 52.6617 46.3725 53.99 46.6411C54.5872 46.7629 55.4403 46.4824 56.0741 46.2143C56.8661 45.9461 57.8168 45.5196 58.7063 44.8615C60.2297 43.7406 61.7044 42.1682 61.6071 40.0356C61.5703 39.0727 61.3023 38.1101 60.9488 37.1839C62.862 36.3798 65.3485 35.9407 68.5169 36.3065C75.3049 37.0986 76.6331 41.3395 76.3772 43.1064C76.1216 44.8859 74.6957 45.861 74.2203 46.1534C73.7448 46.4459 73.5987 46.5557 73.6355 46.775C73.6962 47.0918 73.9155 47.0797 74.3177 47.0063C74.8786 46.9089 77.8763 45.5682 78.0101 42.29C78.2055 38.1464 74.2207 33.5888 67.1645 33.6252ZM14.8467 51.2595C12.6045 53.709 9.46022 54.6352 8.10763 53.8552C6.65735 53.0147 7.2301 49.4072 9.99651 46.799C11.6783 45.2149 13.8475 43.7526 15.2856 42.8508C15.6146 42.656 16.09 42.3634 16.675 42.0099C16.7725 41.9494 16.8212 41.9248 16.8212 41.9248C16.9308 41.8514 17.0527 41.7906 17.1746 41.7174C18.1858 45.4222 17.2109 48.6881 14.8467 51.2595ZM31.2258 40.1207C30.4458 42.0339 28.8005 46.9088 27.8015 46.6528C26.9484 46.4334 26.4241 42.7165 27.6309 39.0607C28.2401 37.2203 29.5318 35.0269 30.2998 34.1739C31.5304 32.7966 32.8832 32.3578 33.2002 32.9063C33.6265 33.6252 31.7131 38.9266 31.2258 40.1207ZM44.7529 46.5801C44.424 46.7505 44.1192 46.8601 43.973 46.7748C43.8635 46.7139 44.1072 46.4822 44.1072 46.4822C44.1072 46.4822 45.8009 44.6664 46.4713 43.8374C46.8612 43.3502 47.312 42.7772 47.7996 42.1438C47.7996 42.2043 47.8115 42.2657 47.8115 42.3385C47.7998 44.5202 45.7037 45.9951 44.7529 46.5801ZM55.185 44.2034C54.9413 44.0328 54.9776 43.4601 55.7942 41.6806C56.1112 40.9859 56.8426 39.8161 58.1097 38.6949C58.256 39.1579 58.3412 39.5965 58.3412 40.0108C58.3288 42.753 56.367 43.7767 55.185 44.2034Z" fill="#30B1F5"/>
</svg>
