<svg width="75" height="75" viewBox="0 0 75 75" fill="none" xmlns="http://www.w3.org/2000/svg">
<g clip-path="url(#clip0_34_731)">
<path d="M71.3333 -0.5H4.66667C2.36458 -0.5 0.5 1.36458 0.5 3.66667V70.3333C0.5 72.6354 2.36458 74.5 4.66667 74.5H71.3333C73.6354 74.5 75.5 72.6354 75.5 70.3333V3.66667C75.5 1.36458 73.6354 -0.5 71.3333 -0.5Z" fill="url(#paint0_linear_34_731)"/>
<path d="M16 31V37.3208H26.3583V66.3583H32.5938L32.7042 37.3208H43.0833V31H16Z" fill="#0E0822"/>
<path d="M48.9042 55.6229C49.8417 56.6333 50.5896 57.7021 51.5792 58.4542C53.7271 60.0875 56.1562 60.3729 58.6646 59.3146C59.8708 58.8063 60.575 57.8229 60.6167 56.5021C60.6542 55.3354 60.0917 54.3792 59.0729 53.8438C57.1104 52.8146 55.0521 51.9625 53.1125 50.8917C51.375 49.9333 49.5604 48.9833 48.1021 47.6708C44.2375 44.1917 44.2458 37.375 47.8271 33.8854C49.775 31.9875 52.1271 31.0708 54.8562 31C63.8354 31 65.8542 36.6583 65.8542 36.6583C64.3646 37.7354 60.2 40.4146 60.2 40.4146C59.4542 39.2708 57.9292 37.8188 56.5604 37.5604C54.8396 37.2375 53.2417 37.8917 52.6958 39.2229C52.0667 40.7583 52.6125 42.2771 54.325 43.1917C56.3646 44.2792 58.4854 45.2187 60.5688 46.2271C62.6104 47.2146 64.5646 48.3479 65.9687 50.1833C69.5187 54.8271 68.8125 63.7125 60.6833 65.8208C56.2396 66.9729 51.8958 66.7104 47.8146 64.325C45.8917 63.2021 44.1 61.0313 43 59.1417C43.0042 59.1417 47.1021 56.675 48.9042 55.6229Z" fill="#0E0822"/>
</g>
<defs>
<linearGradient id="paint0_linear_34_731" x1="0.5" y1="37" x2="75.5" y2="37" gradientUnits="userSpaceOnUse">
<stop stop-color="#30B1F5"/>
<stop offset="1" stop-color="#30B1F5"/>
</linearGradient>
<clipPath id="clip0_34_731">
<rect width="75" height="75" fill="white"/>
</clipPath>
</defs>
</svg>
